<svg xmlns="http://www.w3.org/2000/svg" xmlns:xlink="http://www.w3.org/1999/xlink" width="131" height="30" viewBox="0 0 131 30"><defs><path id="3lwea" d="M114 31h-11v11c1.333 0 2.333-1.01 2.333-2.357v-6.286h6.334C113 33.357 114 32.235 114 31z"/><path id="3lweb" d="M103 50v11h11c0-1.333-1.01-2.333-2.357-2.333h-6.398v-6.334C105.245 51 104.235 50 103 50z"/><path id="3lwec" d="M155 61h11V50c-1.333 0-2.333 1.01-2.333 2.357v6.286h-6.334c-1.222 0-2.222 1.01-2.333 2.357z"/><path id="3lwed" d="M166 42V31h-11c0 1.333 1.01 2.333 2.357 2.333h6.286v6.334c0 1.222 1.122 2.333 2.357 2.333z"/><path id="3lwee" d="M35 53.775l5.642-3.285c.868 2.518 3.364 4.16 5.968 3.941 3.147 0 3.906-1.204 3.906-2.299 0-1.751-1.627-2.408-5.86-3.612-4.23-1.205-8.354-3.285-8.354-8.758 0-5.474 4.666-8.759 9.548-8.759 4.45-.11 8.572 2.409 10.417 6.46l-5.534 3.284c-.76-2.08-2.712-3.394-4.883-3.284-2.061 0-3.038.985-3.038 2.19 0 1.313.651 2.189 5.1 3.612s9.114 2.846 9.114 8.867c0 5.584-4.34 8.868-10.525 8.868-6.076-.11-9.873-2.956-11.501-7.225zM65.381 37.79v5.693h10.742v6.459H65.381v4.05c0 3.723-2.93 6.679-6.619 6.679v-29.34h17.47v6.459zm34.613 14.232c0 5.145-4.232 8.54-9.331 8.54H78.51V31.331h11.285c5.1 0 9.114 3.284 9.114 8.32 0 2.19-.868 4.27-2.495 5.693 2.278 1.423 3.689 3.941 3.58 6.678zM85.13 37.573v5.154h4.666c1.302 0 2.387-.877 2.604-2.193.217-1.317-.651-2.633-2.062-2.962-.217 0-.434-.11-.542 0zm0 16.64h5.534c1.41.109 2.712-1.095 2.712-2.519v-.328c.109-1.423-.976-2.737-2.495-2.846H85.02z"/><path id="3lwef" d="M114.595 44.602v5.42c0 1.313 1.073 1.435 3.219 1.33-.46-1.063-.702-2.26-.702-3.543a7.911 7.911 0 0 1 .589-3.207zm3.282 10.949c-6.126.663-7.877-1.217-7.877-5.53V42.06c0-2.875 1.86-5.419 4.595-6.193v4.313h3.173v4.264c1.176-2.702 3.805-4.657 6.893-4.817h.547c2.868 0 5.34 1.499 6.687 3.79a8.055 8.055 0 0 1 6.77-3.68c2.705 0 5.211 1.4 6.674 3.626V31c2.517 0 4.595 2.101 4.595 4.645v5.972a5.208 5.208 0 0 1 4.377-1.88c3.173 0 5.689 2.211 5.689 6.414v9.51h-4.595v-8.847c.11-1.437-.875-2.654-2.188-2.765h-.438c-1.641 0-2.845.996-2.845 3.208v8.404h-4.595v-3.578c-1.445 2.424-4.01 3.79-6.783 3.79-2.58.065-4.893-1.137-6.38-3.04a7.87 7.87 0 0 1-6.64 3.16c-3.737 0-6.42-1.792-7.659-4.498zm23.633-9.515c-.547-1.105-1.75-1.768-2.954-1.768a3.5 3.5 0 0 0-3.501 3.315v.221c-.11 1.88 1.313 3.427 3.173 3.537h.218c1.204.11 2.407-.663 2.954-1.768l3.94 2.258v-7.99zm-19.584 3.543c.547 1.77 1.969 2.322 3.72 2.322a4.204 4.204 0 0 0 2.954-1.216l3.484 2.027a8.095 8.095 0 0 1-1.438-3.133zm6.455-3.318c-.547-1.88-2.517-2.875-4.267-2.322a3.471 3.471 0 0 0-2.298 2.322z"/></defs><g><g transform="translate(-35 -31)"><use fill="#232222" xlink:href="#3lwea"/></g><g transform="translate(-35 -31)"><use fill="#232222" xlink:href="#3lweb"/></g><g transform="translate(-35 -31)"><use fill="#232222" xlink:href="#3lwec"/></g><g transform="translate(-35 -31)"><use fill="#ff6b00" xlink:href="#3lwed"/></g><g transform="translate(-35 -31)"><use fill="#232222" xlink:href="#3lwee"/></g><g transform="translate(-35 -31)"><use fill="#ff6b00" xlink:href="#3lwef"/></g></g></svg>